<svg xmlns="http://www.w3.org/2000/svg" viewBox="0 0 67.661 59.252">
  <defs>
    <style>
      .a, .b {
        fill: #268585;
      }

      .b {
        opacity: 0.5;
      }
    </style>
  </defs>
  <title>logo</title>
  <g>
    <path class="a" d="M1984.144,427.9l10.869,7.1a32.028,32.028,0,0,1,14.31-8,2.585,2.585,0,0,0,2.228-2.784,5.976,5.976,0,0,0-1.2-4.012c-3.366-4.684-3.735-8.852-2.371-14.287C2009.122,401.366,2013,396,2018,396V375.748Z" transform="translate(-1984.144 -375.748)"/>
    <path class="b" d="M2018,375.748V396h-0.051c5.423,0,8.853,5.217,10,9.768,1.365,5.435.97,9.675-2.4,14.361a6.093,6.093,0,0,0-1.2,4.049,2.607,2.607,0,0,0,2.233,2.8,32.052,32.052,0,0,1,14.314,8.01l10.91-7.092Z" transform="translate(-1984.144 -375.748)"/>
  </g>
</svg>
